<svg width="400" height="600" xmlns="http://www.w3.org/2000/svg">
  <!-- Tło drogi -->
  <rect x="-1" y="0" width="420" height="600" fill="grey"/>

  <!-- Linie boczne drogi -->
  <rect x="0" y="0" width="5" height="600" fill="white"/>
  <rect x="395" y="0" width="5" height="600" fill="white"/>

  <!-- Pasy na pierwszym pasie -->
  <!--Pasy na drugim pasie-->

  <g>
    <rect fill="white" x="77" y="5" width="10" height="30"/>
    <rect fill="white" x="77" y="68" width="10" height="30"/>
    <rect fill="white" x="77" y="131" width="10" height="30"/>
    <rect fill="white" x="77" y="194" width="10" height="30"/>
    <rect fill="white" x="77" y="257" width="10" height="30"/>
    <rect fill="white" x="77" y="320" width="10" height="30"/>
    <rect fill="white" x="77" y="383" width="10" height="30"/>
    <rect fill="white" x="77" y="446" width="10" height="30"/>
    <rect fill="white" x="77" y="509" width="10" height="30"/>
    <rect fill="white" x="77" y="572" width="10" height="30"/>
</g>
  <!--Pasy na trzecim pasie (środkowy pas)-->

  <!--Pasy na czwartym pasie-->
  <g>
    <rect fill="white" x="188" y="10" width="10" height="30"/>
    <rect fill="white" x="188" y="71" width="10" height="30"/>
    <rect fill="white" x="188" y="132" width="10" height="30"/>
    <rect fill="white" x="188" y="193" width="10" height="30"/>
    <rect fill="white" x="188" y="254" width="10" height="30"/>
    <rect fill="white" x="188" y="315" width="10" height="30"/>
    <rect fill="white" x="188" y="376" width="10" height="30"/>
    <rect fill="white" x="188" y="437" width="10" height="30"/>
    <rect fill="white" x="188" y="498" width="10" height="30"/>
    <rect fill="white" x="188" y="559" width="10" height="30"/>
</g>

  <!--Pasy na piątym pasie-->
  <!--Pasy na piątym pasie-->

  <g>
    <rect fill="white" x="301" y="4" width="10" height="30"/>
    <rect fill="white" x="301" y="67" width="10" height="30"/>
    <rect fill="white" x="301" y="130" width="10" height="30"/>
    <rect fill="white" x="301" y="193" width="10" height="30"/>
    <rect fill="white" x="301" y="256" width="10" height="30"/>
    <rect fill="white" x="301" y="319" width="10" height="30"/>
    <rect fill="white" x="301" y="382" width="10" height="30"/>
    <rect fill="white" x="301" y="445" width="10" height="30"/>
    <rect fill="white" x="301" y="508" width="10" height="30"/>
    <rect fill="white" x="301" y="571" width="10" height="30"/>
</g>
</svg>
