<svg width="50" height="100" xmlns="http://www.w3.org/2000/svg" viewBox="0 0 156 312">
  <!-- Górna część ciężarówki -->
  <rect stroke-width="2" fill="#aeae4d" stroke="black" x="19.2" y="0.5" width="113.1" height="95" rx="12.5" ry="12.5"/>

  <!-- Dolna część ciężarówki -->
  <rect stroke-width="2" fill="#aeae4d" stroke="black" x="1.3" y="97.1" width="149.9" height="205.9" rx="12.5" ry="12.5"/>

  <!-- Szyby samochodu -->
  <rect x="38.5" y="26.4" rx="6.3" ry="6.3" width="75" height="50" fill="skyblue" stroke="black" stroke-width="1"/>

  <ellipse fill="black" cx="8.7" cy="290.9" rx="15" ry="25"/>
  <!--Opony-->
  <ellipse fill="black" cx="141.9" cy="288.1" rx="15" ry="25"/>

  <!-- Reflektory -->
  <circle stroke-width="1" fill="#ecec2a" stroke="black" cx="34.2" cy="17.1" r="6"/>
  <circle stroke-width="1" fill="#ecec2a" stroke="black" cx="114.2" cy="15.7" r="6"/>

  <!-- Lusterka boczne -->
  <rect x="15.6" y="28.6" width="5" height="25" fill="#aeae4d" stroke="black" stroke-width="1"/>
  <rect x="127.1" y="30.7" width="5" height="25" fill="#aeae4d" stroke="black" stroke-width="1"/>

  <!-- Zderzaki -->
  <rect x="10" y="90" width="129.1" height="10" fill="grey" stroke="black" stroke-width="1"/>
  <rect x="23.5" y="286.1" width="105" height="10" fill="grey" stroke="black" stroke-width="1"/>

  <!-- Detale -->
  <rect stroke-width="1" fill="grey" stroke="black" x="38.1" y="72.3" width="75" height="12.5"/>
  <rect stroke-width="1" fill="none" stroke="black" x="24" y="112.3" width="106.9" height="122.3"/>
  <!--Korpus samochodu-->

  <rect stroke-width="1" fill="#aeae4d" stroke="black" x="23.5" y="240.3" width="105" height="50"/>
</svg>